<svg viewBox="0 0 390 844" xmlns="http://www.w3.org/2000/svg">
  <!-- iPhone Frame -->
  <rect x="0" y="0" width="390" height="844" rx="45" fill="#f7f7f7"/>
  
  <!-- Status Bar -->
  <rect x="0" y="0" width="390" height="44" fill="#f7f7f7"/>
  <text x="33" y="22" font-family="SF Pro Text" font-size="14" font-weight="500" fill="#000">9:41</text>
  <circle cx="350" cy="22" r="5" fill="#000"/>
  <circle cx="365" cy="22" r="5" fill="#000"/>
  <circle cx="380" cy="22" r="5" fill="#000"/>
  
  <!-- Navigation Header -->
  <rect x="0" y="44" width="390" height="56" fill="#ffffff"/>
  
  <!-- Rasuto "R" Logo -->
  <circle cx="33" cy="72" r="20" fill="#007AFF"/>
  <text x="26" y="79" font-family="SF Pro Display" font-size="22" font-weight="bold" fill="#ffffff">R</text>
  
  <!-- Search Bar -->
  <rect x="65" y="57" width="240" height="36" rx="18" fill="#F0F0F0"/>
  <circle cx="85" cy="75" r="8" fill="none" stroke="#8E8E93" stroke-width="2"/>
  <line x1="91" y1="81" x2="95" y2="85" stroke="#8E8E93" stroke-width="2"/>
  <text x="105" y="78" font-family="SF Pro Text" font-size="16" fill="#8E8E93">Search products...</text>
  
  <!-- Add Button -->
  <circle cx="357" cy="72" r="20" fill="#007AFF"/>
  <line x1="347" y1="72" x2="367" y2="72" stroke="#ffffff" stroke-width="3"/>
  <line x1="357" y1="62" x2="357" y2="82" stroke="#ffffff" stroke-width="3"/>
  
  <!-- Content Area Background -->
  <rect x="0" y="100" width="390" height="694" fill="#f7f7f7"/>
  
  <!-- Recently Viewed -->
  <text x="20" y="130" font-family="SF Pro Display" font-size="20" font-weight="semibold" fill="#000000">Recently Viewed</text>
  <text x="355" y="130" font-family="SF Pro Text" font-size="14" fill="#007AFF">See All</text>
  
  <!-- Recently Viewed Items -->
  <rect x="20" y="145" width="100" height="100" rx="8" fill="#ffffff"/>
  <rect x="30" y="155" width="80" height="80" rx="4" fill="#EAEAEA"/>
  <text x="45" y="195" font-family="SF Pro Text" font-size="10" fill="#8E8E93">Product</text>
  <text x="35" y="240" font-family="SF Pro Text" font-size="12" fill="#000000">Wireless Earbuds</text>
  
  <rect x="130" y="145" width="100" height="100" rx="8" fill="#ffffff"/>
  <rect x="140" y="155" width="80" height="80" rx="4" fill="#EAEAEA"/>
  <text x="155" y="195" font-family="SF Pro Text" font-size="10" fill="#8E8E93">Product</text>
  <text x="150" y="240" font-family="SF Pro Text" font-size="12" fill="#000000">Smart Watch</text>
  
  <rect x="240" y="145" width="100" height="100" rx="8" fill="#ffffff"/>
  <rect x="250" y="155" width="80" height="80" rx="4" fill="#EAEAEA"/>
  <text x="265" y="195" font-family="SF Pro Text" font-size="10" fill="#8E8E93">Product</text>
  <text x="255" y="240" font-family="SF Pro Text" font-size="12" fill="#000000">Tablet Stand</text>
  
  <!-- Price Alerts & Drops -->
  <text x="20" y="280" font-family="SF Pro Display" font-size="20" font-weight="semibold" fill="#000000">Price Alerts &amp; Drops</text>
  <text x="355" y="280" font-family="SF Pro Text" font-size="14" fill="#007AFF">See All</text>
  
  <!-- Price Alert Items -->
  <rect x="20" y="295" width="350" height="80" rx="8" fill="#ffffff"/>
  <rect x="30" y="305" width="60" height="60" rx="4" fill="#EAEAEA"/>
  <text x="100" y="325" font-family="SF Pro Text" font-size="16" font-weight="medium" fill="#000000">Bluetooth Speaker</text>
  <text x="100" y="345" font-family="SF Pro Text" font-size="14" fill="#8E8E93"><tspan text-decoration="line-through">$149.99</tspan> $99.99</text>
  <rect x="100" y="355" width="50" height="18" rx="9" fill="#34C759"/>
  <text x="108" y="369" font-family="SF Pro Text" font-size="12" fill="#ffffff">-33%</text>
  
  <rect x="20" y="385" width="350" height="80" rx="8" fill="#ffffff"/>
  <rect x="30" y="395" width="60" height="60" rx="4" fill="#EAEAEA"/>
  <text x="100" y="415" font-family="SF Pro Text" font-size="16" font-weight="medium" fill="#000000">Coffee Maker</text>
  <text x="100" y="435" font-family="SF Pro Text" font-size="14" fill="#8E8E93"><tspan text-decoration="line-through">$89.99</tspan> $69.99</text>
  <rect x="100" y="445" width="50" height="18" rx="9" fill="#34C759"/>
  <text x="108" y="459" font-family="SF Pro Text" font-size="12" fill="#ffffff">-22%</text>
  
  <!-- Trending Now -->
  <text x="20" y="500" font-family="SF Pro Display" font-size="20" font-weight="semibold" fill="#000000">Trending Now</text>
  <text x="355" y="500" font-family="SF Pro Text" font-size="14" fill="#007AFF">See All</text>
  
  <!-- Trending Items Grid -->
  <rect x="20" y="515" width="170" height="170" rx="8" fill="#ffffff"/>
  <rect x="30" y="525" width="150" height="120" rx="4" fill="#EAEAEA"/>
  <text x="40" y="600" font-family="SF Pro Text" font-size="10" fill="#8E8E93">Trending</text>
  <text x="40" y="665" font-family="SF Pro Text" font-size="14" font-weight="medium" fill="#000000">Wireless Charger</text>
  <text x="40" y="685" font-family="SF Pro Text" font-size="14" fill="#8E8E93">$39.99</text>
  
  <rect x="200" y="515" width="170" height="170" rx="8" fill="#ffffff"/>
  <rect x="210" y="525" width="150" height="120" rx="4" fill="#EAEAEA"/>
  <text x="220" y="600" font-family="SF Pro Text" font-size="10" fill="#8E8E93">Trending</text>
  <text x="220" y="665" font-family="SF Pro Text" font-size="14" font-weight="medium" fill="#000000">Smart Bulb Set</text>
  <text x="220" y="685" font-family="SF Pro Text" font-size="14" fill="#8E8E93">$49.99</text>
  
  <!-- Seasonal Collections -->
  <text x="20" y="720" font-family="SF Pro Display" font-size="20" font-weight="semibold" fill="#000000">Spring Essentials</text>
  <text x="355" y="720" font-family="SF Pro Text" font-size="14" fill="#007AFF">See All</text>
  
  <!-- Seasonal Collection Items -->
  <rect x="20" y="735" width="110" height="130" rx="8" fill="#ffffff"/>
  <rect x="30" y="745" width="90" height="90" rx="4" fill="#EAEAEA"/>
  <text x="35" y="855" font-family="SF Pro Text" font-size="14" fill="#000000">Portable Fan</text>
  
  <rect x="140" y="735" width="110" height="130" rx="8" fill="#ffffff"/>
  <rect x="150" y="745" width="90" height="90" rx="4" fill="#EAEAEA"/>
  <text x="155" y="855" font-family="SF Pro Text" font-size="14" fill="#000000">Water Bottle</text>
  
  <rect x="260" y="735" width="110" height="130" rx="8" fill="#ffffff"/>
  <rect x="270" y="745" width="90" height="90" rx="4" fill="#EAEAEA"/>
  <text x="270" y="855" font-family="SF Pro Text" font-size="14" fill="#000000">Fitness Tracker</text>
  
  <!-- Tab Bar -->
  <rect x="0" y="794" width="390" height="50" fill="#ffffff"/>
  <line x1="0" y1="794" x2="390" y2="794" stroke="#EEEEEE" stroke-width="1"/>
  
  <!-- Home Tab (Selected) -->
  <circle cx="65" cy="819" r="3" fill="#007AFF"/>
  <text x="50" y="835" font-family="SF Pro Text" font-size="10" font-weight="medium" fill="#007AFF">Home</text>
  
  <!-- Favorites Tab -->
  <text x="156" y="835" font-family="SF Pro Text" font-size="10" fill="#8E8E93">Favorites</text>
  
  <!-- Insights Tab -->
  <text x="260" y="835" font-family="SF Pro Text" font-size="10" fill="#8E8E93">Insights</text>
  
  <!-- Settings Tab -->
  <text x="350" y="835" font-family="SF Pro Text" font-size="10" fill="#8E8E93">Settings</text>
</svg>
